<svg width="261" height="48" viewBox="0 0 261 48" fill="none" xmlns="http://www.w3.org/2000/svg">
<path fill-rule="evenodd" clip-rule="evenodd" d="M0.144531 0H19.2382C22.8757 0 25.6038 0.909763 27.6241 2.42499C29.8476 4.24452 31.0601 6.87069 31.0601 10.1054C31.0601 13.8441 29.5445 16.1675 26.5132 17.5828V17.7859C30.5538 19.0996 32.8788 22.7371 32.8788 27.0827C32.8788 31.4284 31.2616 34.4589 28.6351 36.48C26.4116 38.0964 23.5835 38.8034 19.7445 38.8034H0.144531V0ZM18.2289 30.2132C20.5523 30.2132 22.2695 28.798 22.2695 26.2714C22.2695 23.5437 20.4507 22.33 18.2289 22.33H10.7539V30.3132H18.2289V30.2132ZM17.3195 15.1566C19.3398 15.1566 20.857 14.0457 20.857 11.7203C20.857 9.39529 19.3414 8.38592 17.2195 8.38592H10.6539V15.055H17.321L17.3195 15.1566Z" fill="#B2B2B2"/>
<path d="M44.596 0H34.5944V38.9046H44.596V0Z" fill="#B2B2B2"/>
<path fill-rule="evenodd" clip-rule="evenodd" d="M61.0631 10.4082C52.2725 10.4082 46.6163 16.2691 46.6163 25.0605C46.6163 33.8523 52.2725 39.7132 61.0631 39.7132C69.8522 39.7132 75.41 33.7507 75.41 25.0605C75.41 16.3707 69.8522 10.4082 61.0631 10.4082ZM60.8616 17.1789C63.8928 17.1789 65.4069 20.2109 65.4069 25.0605C65.4069 29.912 63.8928 32.9425 60.8616 33.0437C57.8319 33.0437 56.4163 29.9105 56.4163 25.0605C56.4163 20.2109 57.8303 17.1789 60.8616 17.1789Z" fill="#B2B2B2"/>
<path fill-rule="evenodd" clip-rule="evenodd" d="M76.5209 25.0605C76.5209 16.2691 82.1771 10.4082 90.9677 10.4082C99.7568 10.4082 105.213 16.2691 105.213 25.0605C105.213 33.8523 99.6552 39.7132 90.8662 39.7132C82.0771 39.7132 76.5193 33.8523 76.5209 25.0605ZM95.3115 25.0605C95.3115 20.2109 93.7974 17.1789 90.7662 17.1789C87.7349 17.1789 86.3209 20.2109 86.3209 25.0605C86.3209 29.9105 87.7365 33.0437 90.7662 33.0437C93.7974 32.9425 95.3115 29.912 95.3115 25.0605Z" fill="#B2B2B2"/>
<path d="M116.529 11.1148H107.233L107.235 38.8019H117.236V23.7453C117.236 20.7148 118.449 18.491 120.874 18.491C123.297 18.491 124.207 20.3105 124.207 23.1398V38.8019H133.907V23.7453C133.907 20.7148 135.118 18.491 137.543 18.491C139.968 18.491 140.877 20.3105 140.877 23.1398V38.8019H150.575V21.4214C150.575 15.0566 147.847 10.3066 141.382 10.3066C137.949 10.3066 135.019 11.4191 132.796 15.0566H132.593C131.279 12.0246 128.652 10.3066 125.116 10.3066C121.075 10.3066 118.55 12.0246 116.732 15.2578H116.529V11.1148Z" fill="#B2B2B2"/>
<path fill-rule="evenodd" clip-rule="evenodd" d="M162.8 35.1644H162.699V38.8019H153.404V0H163.102V13.9441H163.305C165.124 11.5191 167.65 10.2054 171.185 10.2054C178.157 10.2054 182.199 16.4703 182.199 24.8577C182.199 34.2546 177.855 39.7116 170.58 39.7116C167.549 39.7116 164.418 38.2964 162.8 35.1644ZM172.194 24.7562C172.194 20.3105 170.578 17.38 167.649 17.38C164.719 17.38 162.8 20.3105 162.8 24.7562C162.8 29.2019 164.719 32.1323 167.649 32.1323C170.578 32.1323 172.194 29.3034 172.194 24.7562Z" fill="#B2B2B2"/>
<path fill-rule="evenodd" clip-rule="evenodd" d="M197.349 10.3066C189.064 10.3066 183.307 16.2691 183.307 24.9589C183.307 33.7476 189.066 39.6085 197.653 39.7101C204.624 39.7101 209.574 36.578 211.191 30.2116H201.796C201.188 32.0312 199.674 32.8394 197.957 32.8394C195.025 32.8394 193.41 31.0214 193.005 27.5855H211.594C211.696 21.9273 210.28 17.0757 207.049 13.9441C204.624 11.6207 201.491 10.3066 197.349 10.3066ZM201.897 22.0285H193.005C193.308 18.7953 194.825 16.8746 197.552 16.9757C199.877 16.9757 201.696 18.6941 201.897 22.0285Z" fill="#B2B2B2"/>
<path d="M222.606 15.8648H222.808C224.828 12.0246 227.455 10.5093 230.789 10.5093C231.036 10.5093 231.253 10.5187 231.445 10.5375C231.602 10.5527 231.742 10.5742 231.867 10.6019C232.092 10.6519 232.269 10.7218 232.405 10.8121V19.3007H232.202C226.444 18.2898 223.11 21.0187 223.11 27.2839V38.9046H213.31V11.1164H222.605L222.606 15.8648Z" fill="#B2B2B2"/>
<path fill-rule="evenodd" clip-rule="evenodd" d="M242.81 38.9034H233.416C234.324 45.0671 239.477 48.0991 246.952 47.9975C250.891 47.9975 254.327 47.0878 256.752 44.9655C259.075 42.9448 260.591 39.5089 260.591 35.0632V11.0136H251.295V14.0457H251.094C249.58 11.7207 247.356 10.2054 243.617 10.2054C237.153 10.2054 232.91 16.3691 232.91 24.3523C232.91 33.0425 238.163 37.4882 244.124 37.4882C247.155 37.4882 249.277 36.1757 250.791 34.3562H250.994V36.3769C250.994 39.3077 249.881 41.2268 246.75 41.2268C244.427 41.2268 243.214 40.1159 242.81 38.9034ZM246.953 17.6832C249.781 17.6832 251.399 20.5121 251.399 23.948C251.399 27.587 249.68 30.3148 246.953 30.3148C244.227 30.3148 242.51 27.7882 242.51 23.948C242.51 20.1082 244.125 17.6832 246.953 17.6832Z" fill="#B2B2B2"/>
</svg>
