<svg width="168" height="44" viewBox="0 0 168 44" fill="none" xmlns="http://www.w3.org/2000/svg">
<path fill-rule="evenodd" clip-rule="evenodd" d="M95.2408 14.3248C97.3486 13.1126 99.4675 12.5065 102.152 12.5065C108.686 12.5065 113.679 18.5674 113.679 26.8429C113.679 37.3446 107.533 44 97.3486 44C93.6988 44 90.0489 43.3939 86.5877 42.5897C86.7763 38.347 86.976 12.5181 86.5877 7.6694C86.2105 5.24503 85.6336 4.24265 83.903 3.8347L82.5607 3.63656V2.42437L95.4294 0C95.2408 2.01642 95.2408 7.86755 95.2408 14.3248ZM95.4294 41.5756C96.0063 41.7738 96.9714 41.7738 97.7369 41.7738L97.748 41.7621C101.775 41.7621 104.659 35.5147 104.659 27.4373C104.659 20.9801 102.352 15.7351 98.1252 15.7351C97.16 15.7351 96.3945 15.9332 95.2408 16.3412C95.0411 26.8429 95.2408 38.755 95.4294 41.5756Z" fill="#B2B2B2"/>
<path d="M0.333984 0.792533H34.1476V0.780877L34.3362 12.6929L32.417 13.299C30.4978 7.2381 27.8131 3.81134 22.6212 3.81134H15.8985C15.6988 7.64604 15.5102 14.1033 15.5102 20.9684L20.1252 20.7703C23.0095 20.7703 24.3519 18.3459 24.9287 14.9192H26.6594V29.2439H24.9287C24.3519 25.8172 23.0095 23.3928 20.1252 23.3928L15.5102 23.1947C15.5102 28.4397 15.7099 32.6823 15.8985 35.3048C16.2756 39.1395 17.2408 40.9578 19.7369 41.156L22.0444 41.5639V43.1841H0.333984V41.5639L2.2532 41.156C4.74928 40.9578 5.70334 39.1395 6.09162 35.3048C6.4799 29.0458 6.66849 15.9215 6.09162 8.66008C5.71443 4.82538 4.74928 3.2169 2.2532 2.80896L0.333984 2.61081V0.792533Z" fill="#B2B2B2"/>
<path fill-rule="evenodd" clip-rule="evenodd" d="M45.097 12.0985C54.7041 12.0985 59.5077 18.9637 59.5077 28.0434C59.5077 37.1231 54.1272 43.9883 44.5201 43.9883C34.9129 43.9883 30.1094 37.1231 30.1094 28.0434C30.1094 18.9637 35.4898 12.0985 45.097 12.0985ZM44.5201 14.1149C40.2934 14.1149 39.1396 20.1642 39.1396 28.0434C39.1396 35.9226 41.0588 41.9719 44.9084 41.9719C49.3237 41.9719 50.4774 35.9226 50.4774 28.0434C50.4774 20.1642 48.5582 14.1149 44.5201 14.1149Z" fill="#B2B2B2"/>
<path fill-rule="evenodd" clip-rule="evenodd" d="M130.962 12.0985C121.167 12.0985 116.174 19.9661 116.174 28.2416V28.2532C116.174 37.5428 122.32 44 130.962 44C136.343 44 140.569 41.1677 142.489 38.347L141.723 37.333C139.804 38.7433 138.262 39.5475 135.189 39.5475C128.267 39.5475 124.816 34.1043 125.005 26.6331H142.877C142.877 18.3576 139.027 12.0985 130.962 12.0985ZM134.046 24.2087L125.016 24.4069C125.216 19.7679 126.946 14.1149 130.208 14.1149C133.469 14.1149 134.046 20.1759 134.046 24.2087Z" fill="#B2B2B2"/>
<path d="M165.741 13.7186L165.73 13.7138L165.73 13.707L165.741 13.7186Z" fill="#B2B2B2"/>
<path d="M165.73 13.7138L165.919 21.5745L164.576 21.9825C162.857 16.5277 160.549 14.3131 157.088 14.3131C154.78 14.3131 153.05 16.1314 153.05 18.7539C153.05 21.3764 154.969 22.7984 160.35 25.0129C165.342 27.041 167.461 29.4537 167.461 33.6964C167.461 39.9555 162.657 43.9883 155.169 43.9883C151.519 43.9883 147.292 43.1841 144.985 42.17L144.796 33.2884L146.138 32.8805C148.257 38.9414 150.942 41.156 154.592 41.156C157.665 41.156 159.395 38.9414 159.395 36.5171C159.395 34.0927 158.053 32.6824 153.25 30.8641C148.635 29.2556 145.373 27.0294 145.373 21.7843C145.373 16.5393 149.788 12.0985 156.899 12.0985C160.355 12.0985 163.424 12.7027 165.73 13.7138Z" fill="#B2B2B2"/>
<path d="M72.3766 19.1618C75.4495 11.8887 81.2182 10.8863 84.4798 12.9028L81.4068 21.1783C77.5684 18.5557 73.3417 19.7679 72.3766 21.1783C72.1769 26.027 72.1769 33.6964 72.5652 37.5311C72.7538 39.9555 73.3306 41.1677 75.2498 41.3658L77.5573 41.564V43.1841H59.6965V41.564L61.0388 41.3658C62.7583 41.1677 63.5349 39.9555 63.7235 37.5311C63.9121 33.2885 64.1117 24.8148 63.7235 19.9661C63.5349 17.3436 62.7694 16.3295 61.0388 16.1314L59.6965 15.9332V14.721L72.5652 12.0985L72.3766 19.1618Z" fill="#B2B2B2"/>
</svg>
