<svg width="296" height="52" viewBox="0 0 296 52" fill="none" xmlns="http://www.w3.org/2000/svg">
<path d="M154.189 11.3874C152.694 9.83454 151.104 8.28172 149.515 6.80702C151.099 5.38116 152.689 3.86741 154.189 2.35365C155.818 3.70138 157.452 5.21025 158.992 6.80702C157.452 8.48681 155.818 10.0396 154.189 11.3874ZM32.7967 35.6172L35.5325 33.3515C34.1646 29.738 33.0181 26.4224 32.1373 22.7259C31.5666 22.013 30.0658 20.4992 29.1408 19.8693V22.1399C29.1408 26.9693 26.9807 29.8259 22.0406 31.8426C28.9636 32.0916 31.7831 34.9092 32.7967 35.6221M82.2523 34.7432C82.7394 35.6221 84.8109 36.7159 86.4839 36.7159C86.7053 36.7159 86.9661 36.672 87.1875 36.6329V20.5383C86.2624 19.7423 84.5403 18.3555 82.2474 17.9795V34.7334L82.2523 34.7432ZM151.414 19.7081C150.883 18.7852 149.476 17.5254 148.373 16.4316L154.057 12.7351C155.641 14.2049 157.097 15.8407 158.332 17.8575V43.1372C151.144 43.1372 147.753 52 135.452 52C128.268 52 124.613 48.7674 124.613 44.8609C124.613 41.7943 127.432 39.4846 130.827 39.4846C134.616 39.4846 136.471 41.2474 137.44 42.5903L137.174 42.7124C136.599 42.1655 135.762 41.4965 134.178 41.4965C132.5 41.4965 130.96 42.7124 130.96 44.6021C130.96 47.5417 134.483 50.1005 139.423 50.1005C144.093 50.1005 151.409 47.0339 151.409 40.8177V19.6984L151.414 19.7081ZM69.7838 40.7494C67.5794 40.1585 65.1979 38.6057 63.4807 36.9259V20.5383C63.0428 19.1124 62.162 17.9795 60.7941 16.8857L58.5455 18.5215V34.7725C59.6034 35.5684 61.0992 36.1593 62.5114 36.6232L57.9255 40.7396C55.7654 39.7727 53.4282 38.6789 51.6224 36.9161L46.1115 40.7396C43.3806 40.1927 37.3826 36.2032 35.7982 33.8935C33.2444 35.9102 30.553 38.4299 27.9943 40.7005C25.8785 39.3528 22.2226 37.59 16.136 37.59C8.7307 37.59 1.10398 41.2865 1.10398 45.9889C1.10398 49.0946 3.34771 50.0614 6.17205 50.0614C6.39348 50.2274 6.26062 50.6523 6.0392 50.6913C2.3833 50.6913 0.533203 48.6746 0.533203 45.862C0.533203 37.9221 11.8158 31.8377 18.3404 31.8377C19.354 30.7049 20.279 28.7321 20.279 24.5717V12.8572C20.279 10.9674 20.8104 10.1666 21.1155 9.91755C20.9827 10.1666 20.8498 10.8405 20.8498 12.9841V24.9526C20.8498 28.7321 19.8805 30.7049 18.9111 31.8426C19.2211 31.7596 19.969 31.7157 20.4562 31.7157C22.2226 29.8259 22.2226 26.7203 22.2226 24.2836V12.6032C22.2226 8.70166 23.6348 7.22697 26.1885 4.79519L27.9057 3.15936H27.7286C24.6435 5.34698 22.0848 7.06583 18.1632 7.06583C14.901 7.06583 12.2144 5.72298 9.26211 5.72298C7.01345 5.72298 5.73905 6.81191 5.29621 7.06583C6.57061 4.91727 9.96573 0.0878956 15.1617 0.0878956C19.1326 0.0878956 20.9827 1.68467 24.7714 1.68467C26.8872 1.68467 28.8702 1.39168 30.5431 0.595737L30.7202 0.761762C29.7066 2.48061 29.1359 4.79031 29.1359 7.90084V15.7968L39.892 0.634801C41.1713 1.30867 42.5835 2.23157 44.9601 2.23157C47.9123 2.23157 49.1474 1.34773 50.161 0.800826L50.3381 0.883839C49.7624 2.77359 46.8102 7.34905 42.1406 7.34905C39.5869 7.34905 37.6483 6.29918 36.8511 5.83529L31.6945 13.1013C33.766 14.4881 36.5412 16.8808 38.347 18.5167C38.347 18.5167 38.9227 21.4172 40.2856 25.4018C40.8121 26.9156 42.0472 31.115 43.0608 32.4139C44.2958 33.9668 46.8495 36.3204 51.6125 36.3204V8.14987C51.6125 5.59114 50.7761 4.37036 49.9396 3.57442V3.3205C50.9089 3.57442 52.7639 4.66823 53.6004 6.68006C54.2597 4.07738 57.2563 1.47469 61.975 1.47469C62.3244 1.47469 62.6787 1.51864 63.338 1.5577V1.80674C60.3857 2.35365 58.5356 4.49732 58.5356 8.94582V17.8477L66.1181 12.5984C67.9682 14.2342 69.6018 16.4609 70.3939 17.8477V34.7725C71.5404 35.5293 73.0854 36.2423 74.4041 36.6232L69.7789 40.7396L69.7838 40.7494ZM75.339 19.879L86.4888 12.613C89.5739 14.1658 92.2162 15.7626 94.1155 17.3154V34.7822C94.952 35.4561 97.3778 36.462 98.1257 36.6329L93.4955 40.7494C91.0697 39.6995 88.2503 38.0588 87.1924 36.9259L82.2523 40.7054C79.7822 39.8655 77.4499 38.5617 75.3341 36.9259V19.8693L75.339 19.879ZM99.0507 8.2866C99.0507 6.81679 98.7407 4.92704 97.1957 3.58419L97.3286 3.33027C99.0015 3.83322 100.414 5.47394 100.852 6.68983C101.954 3.03728 105.743 1.48446 109.226 1.48446C109.753 1.48446 110.24 1.52841 110.727 1.61142V1.77744C107.903 2.45131 105.969 4.25317 105.969 8.82862V34.7822C106.717 35.3291 108.567 36.213 109.979 36.6329L105.349 40.7494C102.485 39.4456 100.281 38.1467 99.0458 36.9259V8.27683L99.0507 8.2866ZM218.854 19.7081C218.106 18.5313 217.132 17.4815 216.163 16.5195L221.408 12.613C222.992 14.2488 224.582 16.0556 225.772 17.8623L233.66 12.613C235.289 14.2488 236.878 15.8896 238.069 17.8623L246 12.613C247.545 14.1658 249.09 15.7626 250.409 17.8623V34.7871C251.334 35.378 252.746 36.0909 254.375 36.6378L249.745 40.7542C246.488 39.1575 244.283 37.8976 243.486 36.8917V20.5383C243.137 19.3614 241.636 17.9795 240.312 17.0127L238.064 18.5264V34.7773C238.856 35.3243 239.825 36.0372 241.37 36.628L237.404 40.7445C235.023 39.7386 232.071 38.0148 231.101 36.921V20.5383C230.747 19.2345 229.163 17.8086 227.972 17.0127L225.767 18.5264V34.7773C226.515 35.3243 227.928 36.2081 229.163 36.628L225.197 40.7445C222.904 39.7386 220.478 38.4738 218.849 36.921V19.6984L218.854 19.7081ZM286.909 30.4998C286.289 29.9529 283.691 29.2399 282.766 28.986L276.419 36.6329C279.46 34.7822 284.001 33.9423 286.909 35.4122V30.4998ZM292.331 18.0284C289.733 19.4982 283.78 19.1222 282.368 17.8623V24.4545C283.425 24.7084 284.966 25.1284 285.674 25.4604L292.331 18.0284ZM295.727 15.0057L288.105 23.7367C289.468 24.2836 292.292 25.7534 293.788 26.8423V36.628L285.63 40.8714C284.267 39.5677 276.02 38.0148 272.802 40.7445L272.404 40.4075L280.075 31.0857C278.662 30.3289 277.344 29.9089 275.494 29.6599V17.8575L284.572 12.6081C286.511 14.4149 292.947 16.4316 295.195 14.6688L295.727 15.0057ZM206.292 0.800826C206.159 1.72373 205.013 8.73584 196.55 8.73584H195.005V34.3525C199.369 33.0097 203.03 29.5231 204.614 24.6938H204.88C204.176 33.6787 196.683 40.6957 187.516 40.6957C177.64 40.6957 170.279 33.4296 170.279 23.4779C170.279 16.8857 173.802 10.8795 179.18 8.06686L179.313 8.18894C176.799 11.0065 175.392 14.6151 175.392 18.8975C175.392 24.2738 177.508 28.6002 180.726 31.4129C181.429 30.49 182.443 28.8542 182.443 25.4897V6.47009C182.133 6.47009 181.035 6.17711 179.756 6.17711C176.233 6.17711 173.276 7.13907 170.589 9.95661L170.368 9.91267C171.204 4.11644 175.525 0 183.284 0C190.335 0 193.996 2.56362 199.507 2.56362C203.212 2.56362 205.328 1.21589 206.031 0.673866L206.297 0.800826H206.292ZM182.005 32.3407C183.284 31.1639 184.559 28.9811 184.559 25.6216V6.97793C184.116 6.85585 183.279 6.72889 183.014 6.60193V25.6216C183.014 29.4011 181.734 30.8709 181.031 31.6717C181.296 31.8377 181.734 32.2186 182 32.3456M190.463 35.0313C192.446 35.0313 193.858 34.6553 194.429 34.5283V8.74073C193.46 8.74073 192.18 8.48681 191.605 8.48681V22.555C191.605 29.2741 184.244 31.5399 182.305 32.6337C184.554 33.9765 187.373 35.0264 190.463 35.0264M262.179 29.8161L268.261 25.6606C266.455 22.931 264.472 20.1183 262.179 17.8526V29.821V29.8161ZM255.349 19.8644L266.765 12.5984C269.584 15.704 272.01 18.8975 274.259 22.2571L262.179 30.49V33.4736C264.339 34.6895 267.38 35.9053 269.85 36.6232L273.378 33.7665L273.599 34.2695L265.795 40.7396C261.741 39.8558 258.434 38.5129 255.349 36.8331V19.8693V19.8644ZM209.594 12.7253C211.223 14.2391 212.723 15.8749 213.87 17.8477V34.7725C215.016 35.5293 216.251 36.1202 217.885 36.6232L213.255 40.7396C211.36 39.9437 207.965 38.093 206.952 36.9161V19.6984C206.42 18.7315 205.19 17.7256 203.911 16.4218L209.594 12.7253ZM137.612 29.8161L143.694 25.6167C141.888 22.887 139.905 20.1183 137.612 17.8477V29.8161ZM130.783 19.8644L142.198 12.5984C145.018 15.704 147.443 18.8975 149.692 22.2571L137.612 30.49V33.4736C139.772 34.6895 142.813 35.9053 145.283 36.6232L148.806 33.7665L149.028 34.2695L141.224 40.7396C137.17 39.8558 133.863 38.5129 130.778 36.8331V19.8693L130.783 19.8644ZM117.778 29.8161L123.86 25.6167C122.049 22.887 120.066 20.1183 117.778 17.8477V29.8161ZM110.943 19.8644L122.359 12.5984C125.178 15.704 127.604 18.8975 129.853 22.2571L117.778 30.49V33.4736C119.938 34.6895 122.979 35.9053 125.449 36.6232L128.972 33.7665L129.193 34.2695L121.39 40.7396C117.335 39.8558 114.029 38.5129 110.943 36.8331V19.8693V19.8644ZM209.678 11.3825C208.177 9.82965 206.592 8.27683 205.003 6.80214C206.587 5.37628 208.177 3.86252 209.678 2.34877C211.306 3.6965 212.94 5.20537 214.48 6.80214C212.935 8.48192 211.306 10.0347 209.678 11.3825Z" fill="#B2B2B2"/>
</svg>
