<svg width="167" height="44" viewBox="0 0 167 44" fill="none" xmlns="http://www.w3.org/2000/svg">
<path d="M12.6885 0V6.81639H7.25126V36.7786H12.6885V43.6227H0.460938V0H12.6885Z" fill="#B2B2B2"/>
<path d="M43.898 0V43.6227H31.6871V36.7786H37.1105V6.81639H31.6871V0H43.898Z" fill="#B2B2B2"/>
<path d="M166.146 23.1624H160.527V43.6283H166.146V23.1624Z" fill="#B2B2B2"/>
<path fill-rule="evenodd" clip-rule="evenodd" d="M143.058 39.453C143.058 35.8963 146.653 34.4565 153.06 34.0043L153.062 34.0071V33.5826C153.062 31.918 152.024 31.5796 150.815 31.5796C149.381 31.5796 148.454 32.201 148.258 33.5271H143.425C143.649 30.6752 146.261 27.9092 151.207 27.9092C155.562 27.9092 158.654 29.546 158.569 34.6257L158.541 37.5332V39.0285C158.541 40.5821 158.682 42.3881 158.823 43.631H153.595V41.6557C152.471 43.348 150.588 43.9972 148.454 43.9972C145.529 43.9972 143.058 42.1634 143.058 39.453ZM150.558 40.2131C151.991 40.2131 153.256 39.6194 153.256 37.2779V36.8229C150.251 37.0227 148.705 37.5027 148.705 38.8288C148.705 39.4779 149.235 40.2131 150.558 40.2131Z" fill="#B2B2B2"/>
<path d="M132.018 28.4446H126.398V43.631H132.018V35.6716C132.018 33.4411 132.915 32.6227 134.293 32.6227C135.95 32.6227 136.118 33.9793 136.118 35.2472V43.631H141.738V34.118C141.738 30.4199 140.473 28.1062 136.709 28.1062C134.602 28.1062 133.056 28.8691 132.018 30.4199V28.4446Z" fill="#B2B2B2"/>
<path fill-rule="evenodd" clip-rule="evenodd" d="M125.531 36.0101C125.531 41.345 121.682 43.9972 117.216 43.9972C112.69 43.9972 108.899 41.3173 108.899 36.0101C108.899 30.7029 112.751 27.9924 117.216 27.9924C121.682 27.9924 125.531 30.6752 125.531 36.0101ZM119.743 36.0073C119.743 33.1859 118.65 32.1982 117.216 32.1982C115.783 32.1982 114.687 33.1831 114.687 36.0073C114.687 38.8315 115.786 39.7914 117.216 39.7914C118.647 39.7914 119.743 38.8288 119.743 36.0073Z" fill="#B2B2B2"/>
<path d="M102.412 27.174H108.032V23.1652H102.412V27.174Z" fill="#B2B2B2"/>
<path d="M108.032 43.631H102.412V28.4446H108.032V43.631Z" fill="#B2B2B2"/>
<path d="M91.7672 28.4446H88.7324V32.0013H91.7672V39.059C91.7672 43.2371 93.1728 43.631 97.3591 43.631H101.236V39.8192H98.483C97.7264 39.8192 97.3867 39.6499 97.3867 38.776V32.0013H101.236V28.4446H97.3867V24.2666H91.7672V28.4446Z" fill="#B2B2B2"/>
<path fill-rule="evenodd" clip-rule="evenodd" d="M73.2022 39.4557C73.2022 35.8991 76.7976 34.4593 83.2041 34.0071L83.2068 34.0098V33.5854C83.2068 31.9208 82.1685 31.5823 80.959 31.5823C79.5259 31.5823 78.598 32.2038 78.402 33.5299H73.5695C73.7932 30.6779 76.4055 27.912 81.3512 27.912C85.7059 27.912 88.7987 29.5488 88.7131 34.6285L88.6855 37.5359V39.0313C88.6855 40.5849 88.8263 42.3909 88.9672 43.6338H83.7398V41.6585C82.6159 43.3508 80.7354 44 78.598 44C75.6737 44 73.2022 42.1662 73.2022 39.4557ZM80.7022 40.2159C82.1354 40.2159 83.4001 39.6222 83.4001 37.2807V36.8257C80.3957 37.0255 78.8493 37.5054 78.8493 38.8315C78.8493 39.4807 79.3795 40.2159 80.7022 40.2159Z" fill="#B2B2B2"/>
<path d="M71.9982 43.6283V23.1624H66.5776V36.1765L60.3119 23.1624H53.0908V43.6283H58.5115V30.5864L64.7495 43.6283H71.9982Z" fill="#B2B2B2"/>
<path fill-rule="evenodd" clip-rule="evenodd" d="M91.0134 20.8764C95.7326 20.8764 98.2621 17.6028 98.9359 15.3723H93.6533C93.3164 16.1907 92.1925 16.7261 91.0962 16.7261C89.3261 16.7261 88.2575 15.7385 88.0614 14.1876H98.9635C99.328 8.9082 96.0419 4.73014 90.7593 4.73014C86.1781 4.73014 82.6104 7.83733 82.6104 12.6895C82.6104 17.5417 85.6728 20.8764 91.0106 20.8764H91.0134ZM91.1266 8.59748C92.3361 8.59748 93.8521 9.24666 93.9929 11.0527H88.147C88.5143 9.24666 89.9447 8.59748 91.1238 8.59748H91.1266Z" fill="#B2B2B2"/>
<path d="M66.0695 0.0166464H71.689V7.2686C72.73 5.71778 74.2736 4.95486 76.3806 4.95486C80.1472 4.95486 81.4119 7.27138 81.4119 10.9695V20.4797H75.7924V12.1236C75.7924 10.853 75.624 9.49912 73.9644 9.49912C72.5864 9.49912 71.689 10.3175 71.689 12.548V20.4797H66.0695V0.0166464Z" fill="#B2B2B2"/>
<path d="M53.1764 20.4797H59.0472V5.0686H65.1444V0.0166464H47.1068V5.0686H53.1764V20.4797Z" fill="#B2B2B2"/>
<path d="M28.9667 21.7836L15.4026 8.17301V0H28.9667V21.7836Z" fill="#B2B2B2"/>
<path d="M28.9667 35.4497L28.975 43.6199H15.4026V21.8391L28.9667 35.4497Z" fill="#B2B2B2"/>
</svg>
