<svg xmlns="http://www.w3.org/2000/svg" xmlns:xlink="http://www.w3.org/1999/xlink" width="167" zoomAndPan="magnify" viewBox="0 0 125.25 36.000001" height="48" preserveAspectRatio="xMidYMid meet" version="1.0"><defs><g/><clipPath id="8c2e9e7c95"><path d="M 1.328125 8.707031 L 46.570312 8.707031 L 46.570312 34 L 1.328125 34 Z M 1.328125 8.707031 " clip-rule="nonzero"/></clipPath><clipPath id="ade3500695"><path d="M 1.328125 1.546875 L 45.839844 1.546875 L 45.839844 26.355469 L 1.328125 26.355469 Z M 1.328125 1.546875 " clip-rule="nonzero"/></clipPath></defs><g clip-path="url(#8c2e9e7c95)"><path fill="#060644" d="M 1.667969 24.0625 C 3.230469 25.625 5.609375 27 8.5625 28.070312 L 8.5625 29.796875 C 4.453125 28.207031 1.859375 26.03125 1.386719 23.773438 C 1.476562 23.863281 1.570312 23.960938 1.667969 24.0625 Z M 21.089844 30.664062 C 21.074219 30.582031 21.054688 30.5 21.039062 30.414062 C 21.03125 30.398438 21.027344 30.375 21.019531 30.355469 C 20.976562 30.195312 20.910156 30.035156 20.835938 29.878906 C 20.75 29.703125 20.640625 29.546875 20.519531 29.398438 C 20.183594 28.984375 19.75 28.683594 19.246094 28.515625 C 18.964844 28.421875 18.667969 28.363281 18.363281 28.363281 C 17.941406 28.363281 17.539062 28.457031 17.167969 28.636719 C 16.953125 28.738281 16.757812 28.867188 16.578125 29.023438 C 16.433594 29.144531 16.300781 29.277344 16.1875 29.425781 C 16.1875 29.433594 16.179688 29.433594 16.179688 29.4375 C 16.074219 29.570312 15.988281 29.710938 15.914062 29.859375 C 15.707031 30.253906 15.597656 30.6875 15.597656 31.144531 C 15.597656 31.308594 15.613281 31.476562 15.644531 31.640625 C 15.671875 31.808594 15.71875 31.96875 15.78125 32.125 C 15.851562 32.308594 15.941406 32.476562 16.046875 32.640625 C 16.175781 32.835938 16.3125 33.015625 16.480469 33.171875 C 16.761719 33.429688 17.097656 33.632812 17.460938 33.761719 C 17.75 33.859375 18.058594 33.921875 18.371094 33.921875 C 18.492188 33.921875 18.605469 33.914062 18.722656 33.898438 C 18.890625 33.875 19.050781 33.835938 19.207031 33.789062 C 19.632812 33.65625 20.023438 33.417969 20.339844 33.09375 C 20.472656 32.960938 20.59375 32.816406 20.699219 32.65625 C 20.789062 32.511719 20.863281 32.363281 20.929688 32.207031 C 20.964844 32.121094 21.003906 32.03125 21.027344 31.941406 C 21.03125 31.929688 21.03125 31.917969 21.03125 31.90625 C 21.0625 31.800781 21.085938 31.699219 21.101562 31.59375 C 21.109375 31.566406 21.113281 31.535156 21.113281 31.5 C 21.128906 31.386719 21.136719 31.265625 21.136719 31.148438 C 21.136719 31.027344 21.125 30.90625 21.109375 30.785156 C 21.109375 30.738281 21.097656 30.703125 21.089844 30.664062 Z M 10.414062 28.671875 L 10.414062 30.898438 C 11.484375 31.230469 12.609375 31.523438 13.789062 31.765625 C 13.765625 31.609375 13.753906 31.453125 13.75 31.292969 C 13.75 31.242188 13.742188 31.195312 13.742188 31.144531 C 13.742188 30.59375 13.847656 30.050781 14.03125 29.535156 C 14.082031 29.394531 14.148438 29.253906 14.214844 29.109375 C 12.898438 28.859375 11.628906 28.5625 10.414062 28.207031 Z M 10.628906 13.59375 L 10.628906 11.824219 C 5.34375 13.433594 1.929688 15.921875 1.386719 18.566406 C 1.4375 18.507812 1.488281 18.453125 1.546875 18.398438 C 3.464844 16.402344 6.601562 14.75 10.628906 13.59375 Z M 33.828125 13.929688 L 34.417969 13.453125 L 34.417969 10.625 L 34.15625 10.300781 L 33.730469 9.761719 C 30.570312 9.054688 27.023438 8.675781 23.445312 8.675781 C 19.871094 8.675781 16.324219 9.054688 13.164062 9.761719 L 12.738281 10.300781 L 12.476562 10.625 L 12.476562 13.453125 L 13.066406 13.929688 L 13.5 14.273438 C 16.617188 13.628906 19.964844 13.304688 23.445312 13.304688 C 26.925781 13.304688 30.269531 13.632812 33.394531 14.273438 Z M 38.332031 28.070312 L 38.332031 29.796875 C 42.441406 28.207031 45.035156 26.03125 45.507812 23.773438 C 45.414062 23.871094 45.324219 23.96875 45.226562 24.066406 C 43.664062 25.625 41.285156 27 38.332031 28.070312 Z M 36.265625 11.824219 L 36.265625 13.597656 C 40.292969 14.753906 43.429688 16.40625 45.351562 18.398438 C 45.402344 18.457031 45.460938 18.507812 45.515625 18.566406 C 44.964844 15.921875 41.550781 13.425781 36.265625 11.824219 Z M 30.726562 29.4375 C 30.726562 29.433594 30.71875 29.433594 30.71875 29.425781 C 30.597656 29.277344 30.464844 29.144531 30.320312 29.015625 C 30.140625 28.859375 29.941406 28.734375 29.730469 28.628906 C 29.363281 28.457031 28.957031 28.359375 28.535156 28.359375 C 28.230469 28.359375 27.9375 28.417969 27.652344 28.507812 C 27.15625 28.675781 26.714844 28.984375 26.382812 29.394531 C 26.265625 29.542969 26.15625 29.699219 26.0625 29.871094 C 25.984375 30.027344 25.925781 30.191406 25.878906 30.351562 C 25.875 30.375 25.867188 30.390625 25.863281 30.410156 C 25.839844 30.488281 25.820312 30.570312 25.808594 30.652344 C 25.804688 30.691406 25.792969 30.726562 25.785156 30.765625 C 25.769531 30.890625 25.757812 31.011719 25.757812 31.132812 C 25.757812 31.253906 25.769531 31.367188 25.78125 31.484375 C 25.785156 31.511719 25.785156 31.546875 25.792969 31.578125 C 25.808594 31.679688 25.832031 31.785156 25.863281 31.886719 C 25.867188 31.898438 25.867188 31.910156 25.875 31.921875 C 25.902344 32.015625 25.9375 32.101562 25.972656 32.1875 C 26.035156 32.34375 26.109375 32.496094 26.203125 32.632812 C 26.304688 32.796875 26.429688 32.941406 26.5625 33.078125 C 26.878906 33.402344 27.265625 33.636719 27.691406 33.769531 C 27.847656 33.824219 28.011719 33.863281 28.179688 33.882812 C 28.292969 33.898438 28.410156 33.902344 28.53125 33.902344 C 28.847656 33.902344 29.148438 33.847656 29.4375 33.742188 C 29.800781 33.617188 30.136719 33.414062 30.417969 33.152344 C 30.585938 32.996094 30.730469 32.816406 30.851562 32.621094 C 30.957031 32.464844 31.050781 32.296875 31.113281 32.121094 C 31.113281 32.121094 31.113281 32.113281 31.113281 32.113281 C 31.171875 31.957031 31.214844 31.789062 31.25 31.621094 C 31.28125 31.460938 31.296875 31.292969 31.296875 31.125 C 31.296875 30.667969 31.1875 30.234375 30.980469 29.84375 C 30.917969 29.714844 30.828125 29.570312 30.726562 29.4375 Z M 46.125 19.304688 L 46.511719 19.304688 Z M 32.867188 29.542969 C 33.058594 30.050781 33.15625 30.59375 33.15625 31.148438 C 33.15625 31.199219 33.152344 31.246094 33.152344 31.300781 C 33.144531 31.453125 33.132812 31.617188 33.113281 31.773438 C 34.289062 31.53125 35.417969 31.242188 36.484375 30.90625 L 36.484375 28.21875 C 35.277344 28.574219 34.007812 28.871094 32.683594 29.121094 C 32.753906 29.253906 32.816406 29.398438 32.867188 29.542969 Z M 32.867188 29.542969 " fill-opacity="1" fill-rule="nonzero"/></g><g fill="#000080" fill-opacity="1"><g transform="translate(51.642757, 25.191098)"><g><path d="M 1.9375 -18.234375 C 2.144531 -18.234375 2.359375 -18.117188 2.578125 -17.890625 C 2.804688 -17.671875 2.960938 -17.398438 3.046875 -17.078125 C 3.460938 -14.597656 4.609375 -10.125 6.484375 -3.65625 C 6.578125 -3.863281 7.050781 -4.835938 7.90625 -6.578125 L 10.453125 -11.84375 C 10.617188 -12.164062 10.9375 -12.8125 11.40625 -13.78125 C 12.15625 -15.320312 12.78125 -16.515625 13.28125 -17.359375 C 13.789062 -18.210938 14.242188 -18.640625 14.640625 -18.640625 C 14.734375 -18.640625 14.835938 -18.582031 14.953125 -18.46875 C 15.066406 -18.363281 15.160156 -18.195312 15.234375 -17.96875 C 15.316406 -17.75 15.359375 -17.488281 15.359375 -17.1875 C 15.359375 -16.851562 15.25 -16.429688 15.03125 -15.921875 C 14.101562 -14.296875 12.71875 -11.679688 10.875 -8.078125 C 9.039062 -4.472656 7.898438 -2.132812 7.453125 -1.0625 C 7.296875 -0.738281 7.164062 -0.507812 7.0625 -0.375 C 6.957031 -0.25 6.796875 -0.140625 6.578125 -0.046875 C 6.367188 0.0351562 6.066406 0.078125 5.671875 0.078125 C 5.523438 0.078125 5.066406 -1.175781 4.296875 -3.6875 C 3.535156 -6.207031 2.8125 -8.8125 2.125 -11.5 C 1.445312 -14.195312 1.109375 -15.90625 1.109375 -16.625 C 1.109375 -17.0625 1.15625 -17.4375 1.25 -17.75 C 1.351562 -18.070312 1.582031 -18.234375 1.9375 -18.234375 Z M 1.9375 -18.234375 "/></g></g><g transform="translate(67.35781, 25.191098)"><g><path d="M 12 -3.4375 C 12.363281 -3.4375 12.640625 -3.320312 12.828125 -3.09375 C 13.015625 -2.863281 13.109375 -2.503906 13.109375 -2.015625 C 13.109375 -1.066406 12.429688 -0.441406 11.078125 -0.140625 C 9.722656 0.148438 8.382812 0.296875 7.0625 0.296875 C 6.070312 0.296875 5.113281 0.0078125 4.1875 -0.5625 C 3.269531 -1.132812 2.523438 -1.914062 1.953125 -2.90625 C 1.390625 -3.894531 1.109375 -4.976562 1.109375 -6.15625 C 1.109375 -7.84375 1.382812 -9.335938 1.9375 -10.640625 C 2.488281 -11.941406 3.289062 -12.953125 4.34375 -13.671875 C 5.394531 -14.398438 6.644531 -14.765625 8.09375 -14.765625 C 8.863281 -14.765625 9.625 -14.570312 10.375 -14.1875 C 11.132812 -13.8125 11.757812 -13.257812 12.25 -12.53125 C 12.738281 -11.800781 12.984375 -10.941406 12.984375 -9.953125 C 12.984375 -9.441406 12.90625 -9.015625 12.75 -8.671875 C 12.601562 -8.328125 12.398438 -8.109375 12.140625 -8.015625 L 3.078125 -4.78125 C 3.378906 -3.789062 4.003906 -3.144531 4.953125 -2.84375 C 5.910156 -2.550781 6.96875 -2.40625 8.125 -2.40625 C 8.5 -2.40625 8.875 -2.457031 9.25 -2.5625 C 9.632812 -2.675781 10.085938 -2.832031 10.609375 -3.03125 C 10.941406 -3.15625 11.210938 -3.253906 11.421875 -3.328125 C 11.640625 -3.398438 11.832031 -3.4375 12 -3.4375 Z M 2.921875 -7.0625 C 3.671875 -7.269531 4.523438 -7.5625 5.484375 -7.9375 C 6.441406 -8.320312 7.671875 -8.820312 9.171875 -9.4375 C 10.179688 -9.863281 10.875 -10.144531 11.25 -10.28125 C 10.976562 -10.863281 10.519531 -11.289062 9.875 -11.5625 C 9.238281 -11.832031 8.5 -11.96875 7.65625 -11.96875 C 7.1875 -11.96875 6.609375 -11.789062 5.921875 -11.4375 C 5.234375 -11.082031 4.597656 -10.535156 4.015625 -9.796875 C 3.429688 -9.054688 3.066406 -8.144531 2.921875 -7.0625 Z M 2.921875 -7.0625 "/></g></g><g transform="translate(81.723288, 25.191098)"><g><path d="M 12 -3.4375 C 12.363281 -3.4375 12.640625 -3.320312 12.828125 -3.09375 C 13.015625 -2.863281 13.109375 -2.503906 13.109375 -2.015625 C 13.109375 -1.066406 12.429688 -0.441406 11.078125 -0.140625 C 9.722656 0.148438 8.382812 0.296875 7.0625 0.296875 C 6.070312 0.296875 5.113281 0.0078125 4.1875 -0.5625 C 3.269531 -1.132812 2.523438 -1.914062 1.953125 -2.90625 C 1.390625 -3.894531 1.109375 -4.976562 1.109375 -6.15625 C 1.109375 -7.84375 1.382812 -9.335938 1.9375 -10.640625 C 2.488281 -11.941406 3.289062 -12.953125 4.34375 -13.671875 C 5.394531 -14.398438 6.644531 -14.765625 8.09375 -14.765625 C 8.863281 -14.765625 9.625 -14.570312 10.375 -14.1875 C 11.132812 -13.8125 11.757812 -13.257812 12.25 -12.53125 C 12.738281 -11.800781 12.984375 -10.941406 12.984375 -9.953125 C 12.984375 -9.441406 12.90625 -9.015625 12.75 -8.671875 C 12.601562 -8.328125 12.398438 -8.109375 12.140625 -8.015625 L 3.078125 -4.78125 C 3.378906 -3.789062 4.003906 -3.144531 4.953125 -2.84375 C 5.910156 -2.550781 6.96875 -2.40625 8.125 -2.40625 C 8.5 -2.40625 8.875 -2.457031 9.25 -2.5625 C 9.632812 -2.675781 10.085938 -2.832031 10.609375 -3.03125 C 10.941406 -3.15625 11.210938 -3.253906 11.421875 -3.328125 C 11.640625 -3.398438 11.832031 -3.4375 12 -3.4375 Z M 2.921875 -7.0625 C 3.671875 -7.269531 4.523438 -7.5625 5.484375 -7.9375 C 6.441406 -8.320312 7.671875 -8.820312 9.171875 -9.4375 C 10.179688 -9.863281 10.875 -10.144531 11.25 -10.28125 C 10.976562 -10.863281 10.519531 -11.289062 9.875 -11.5625 C 9.238281 -11.832031 8.5 -11.96875 7.65625 -11.96875 C 7.1875 -11.96875 6.609375 -11.789062 5.921875 -11.4375 C 5.234375 -11.082031 4.597656 -10.535156 4.015625 -9.796875 C 3.429688 -9.054688 3.066406 -8.144531 2.921875 -7.0625 Z M 2.921875 -7.0625 "/></g></g><g transform="translate(96.088766, 25.191098)"><g><path d="M 10.71875 -3.375 C 10.84375 -3.375 10.992188 -3.3125 11.171875 -3.1875 C 11.359375 -3.070312 11.519531 -2.878906 11.65625 -2.609375 C 11.800781 -2.335938 11.875 -1.992188 11.875 -1.578125 C 11.875 -1.359375 11.800781 -1.117188 11.65625 -0.859375 C 11.519531 -0.609375 11.351562 -0.394531 11.15625 -0.21875 C 10.96875 -0.0507812 10.796875 0.03125 10.640625 0.03125 L 9.765625 0.03125 C 9.421875 0.03125 8.929688 0.0507812 8.296875 0.09375 C 7.648438 0.132812 7.15625 0.15625 6.8125 0.15625 C 5.070312 0.15625 3.6875 -0.269531 2.65625 -1.125 C 1.625 -1.976562 1.109375 -3.421875 1.109375 -5.453125 C 1.109375 -7.097656 1.375 -8.597656 1.90625 -9.953125 C 2.445312 -11.304688 3.226562 -12.378906 4.25 -13.171875 C 5.28125 -13.960938 6.503906 -14.359375 7.921875 -14.359375 C 8.617188 -14.359375 9.265625 -14.1875 9.859375 -13.84375 C 10.453125 -13.5 10.925781 -13.023438 11.28125 -12.421875 C 11.632812 -11.816406 11.8125 -11.144531 11.8125 -10.40625 C 11.8125 -10.050781 11.753906 -9.691406 11.640625 -9.328125 C 11.535156 -8.960938 11.367188 -8.78125 11.140625 -8.78125 C 10.972656 -8.78125 10.828125 -8.84375 10.703125 -8.96875 C 10.578125 -9.101562 10.421875 -9.3125 10.234375 -9.59375 C 10.015625 -9.9375 9.800781 -10.222656 9.59375 -10.453125 C 9.394531 -10.691406 9.113281 -10.894531 8.75 -11.0625 C 8.394531 -11.226562 7.953125 -11.3125 7.421875 -11.3125 C 6.597656 -11.3125 5.859375 -11.070312 5.203125 -10.59375 C 4.546875 -10.125 4.035156 -9.503906 3.671875 -8.734375 C 3.304688 -7.972656 3.125 -7.175781 3.125 -6.34375 C 3.125 -5.363281 3.304688 -4.613281 3.671875 -4.09375 C 4.046875 -3.570312 4.609375 -3.210938 5.359375 -3.015625 C 6.109375 -2.816406 7.132812 -2.71875 8.4375 -2.71875 C 8.71875 -2.71875 8.957031 -2.742188 9.15625 -2.796875 C 9.351562 -2.847656 9.582031 -2.9375 9.84375 -3.0625 C 10.175781 -3.21875 10.46875 -3.320312 10.71875 -3.375 Z M 10.71875 -3.375 "/></g></g><g transform="translate(109.209636, 25.191098)"><g><path d="M 12 -3.4375 C 12.363281 -3.4375 12.640625 -3.320312 12.828125 -3.09375 C 13.015625 -2.863281 13.109375 -2.503906 13.109375 -2.015625 C 13.109375 -1.066406 12.429688 -0.441406 11.078125 -0.140625 C 9.722656 0.148438 8.382812 0.296875 7.0625 0.296875 C 6.070312 0.296875 5.113281 0.0078125 4.1875 -0.5625 C 3.269531 -1.132812 2.523438 -1.914062 1.953125 -2.90625 C 1.390625 -3.894531 1.109375 -4.976562 1.109375 -6.15625 C 1.109375 -7.84375 1.382812 -9.335938 1.9375 -10.640625 C 2.488281 -11.941406 3.289062 -12.953125 4.34375 -13.671875 C 5.394531 -14.398438 6.644531 -14.765625 8.09375 -14.765625 C 8.863281 -14.765625 9.625 -14.570312 10.375 -14.1875 C 11.132812 -13.8125 11.757812 -13.257812 12.25 -12.53125 C 12.738281 -11.800781 12.984375 -10.941406 12.984375 -9.953125 C 12.984375 -9.441406 12.90625 -9.015625 12.75 -8.671875 C 12.601562 -8.328125 12.398438 -8.109375 12.140625 -8.015625 L 3.078125 -4.78125 C 3.378906 -3.789062 4.003906 -3.144531 4.953125 -2.84375 C 5.910156 -2.550781 6.96875 -2.40625 8.125 -2.40625 C 8.5 -2.40625 8.875 -2.457031 9.25 -2.5625 C 9.632812 -2.675781 10.085938 -2.832031 10.609375 -3.03125 C 10.941406 -3.15625 11.210938 -3.253906 11.421875 -3.328125 C 11.640625 -3.398438 11.832031 -3.4375 12 -3.4375 Z M 2.921875 -7.0625 C 3.671875 -7.269531 4.523438 -7.5625 5.484375 -7.9375 C 6.441406 -8.320312 7.671875 -8.820312 9.171875 -9.4375 C 10.179688 -9.863281 10.875 -10.144531 11.25 -10.28125 C 10.976562 -10.863281 10.519531 -11.289062 9.875 -11.5625 C 9.238281 -11.832031 8.5 -11.96875 7.65625 -11.96875 C 7.1875 -11.96875 6.609375 -11.789062 5.921875 -11.4375 C 5.234375 -11.082031 4.597656 -10.535156 4.015625 -9.796875 C 3.429688 -9.054688 3.066406 -8.144531 2.921875 -7.0625 Z M 2.921875 -7.0625 "/></g></g></g><g clip-path="url(#ade3500695)"><path fill="#060644" d="M 1.65625 16.574219 C 3.183594 18.105469 5.511719 19.453125 8.402344 20.5 L 8.402344 22.1875 C 4.382812 20.632812 1.84375 18.503906 1.378906 16.292969 C 1.46875 16.382812 1.5625 16.480469 1.65625 16.574219 Z M 20.664062 23.039062 C 20.648438 22.957031 20.632812 22.878906 20.613281 22.792969 C 20.609375 22.777344 20.605469 22.753906 20.597656 22.738281 C 20.550781 22.578125 20.492188 22.421875 20.417969 22.269531 C 20.332031 22.097656 20.226562 21.945312 20.105469 21.800781 C 19.777344 21.390625 19.355469 21.097656 18.863281 20.933594 C 18.585938 20.84375 18.296875 20.789062 17.996094 20.789062 C 17.585938 20.789062 17.1875 20.878906 16.828125 21.054688 C 16.617188 21.15625 16.425781 21.277344 16.25 21.433594 C 16.109375 21.550781 15.980469 21.679688 15.867188 21.828125 C 15.867188 21.832031 15.859375 21.832031 15.859375 21.839844 C 15.757812 21.96875 15.671875 22.105469 15.601562 22.25 C 15.394531 22.636719 15.289062 23.058594 15.289062 23.507812 C 15.289062 23.671875 15.304688 23.835938 15.335938 23.992188 C 15.363281 24.15625 15.40625 24.316406 15.46875 24.46875 C 15.539062 24.648438 15.628906 24.8125 15.730469 24.972656 C 15.855469 25.164062 15.988281 25.339844 16.152344 25.492188 C 16.429688 25.746094 16.757812 25.945312 17.113281 26.066406 C 17.398438 26.164062 17.699219 26.226562 18.003906 26.226562 C 18.121094 26.226562 18.234375 26.21875 18.347656 26.203125 C 18.511719 26.179688 18.667969 26.140625 18.824219 26.097656 C 19.242188 25.964844 19.621094 25.734375 19.929688 25.417969 C 20.0625 25.289062 20.179688 25.144531 20.28125 24.988281 C 20.371094 24.847656 20.445312 24.699219 20.507812 24.546875 C 20.542969 24.460938 20.582031 24.378906 20.605469 24.285156 C 20.609375 24.277344 20.609375 24.265625 20.609375 24.253906 C 20.636719 24.152344 20.660156 24.050781 20.675781 23.949219 C 20.683594 23.917969 20.6875 23.890625 20.6875 23.855469 C 20.707031 23.746094 20.710938 23.625 20.710938 23.511719 C 20.710938 23.394531 20.699219 23.273438 20.683594 23.15625 C 20.683594 23.109375 20.671875 23.078125 20.664062 23.039062 Z M 10.21875 21.085938 L 10.21875 23.269531 C 11.261719 23.589844 12.367188 23.878906 13.519531 24.117188 C 13.496094 23.964844 13.484375 23.8125 13.480469 23.652344 C 13.480469 23.601562 13.472656 23.558594 13.472656 23.507812 C 13.472656 22.96875 13.574219 22.4375 13.757812 21.933594 C 13.808594 21.792969 13.871094 21.65625 13.9375 21.515625 C 12.648438 21.273438 11.40625 20.980469 10.21875 20.632812 Z M 10.425781 6.328125 L 10.425781 4.597656 C 5.253906 6.171875 1.910156 8.609375 1.378906 11.199219 C 1.429688 11.140625 1.480469 11.085938 1.539062 11.035156 C 3.414062 9.078125 6.484375 7.460938 10.425781 6.328125 Z M 33.132812 6.65625 L 33.710938 6.195312 L 33.710938 3.421875 L 33.457031 3.105469 L 33.035156 2.582031 C 29.945312 1.886719 26.472656 1.519531 22.972656 1.519531 C 19.472656 1.519531 16 1.886719 12.910156 2.582031 L 12.488281 3.105469 L 12.234375 3.421875 L 12.234375 6.195312 L 12.8125 6.65625 L 13.238281 6.996094 C 16.289062 6.363281 19.5625 6.046875 22.972656 6.046875 C 26.375 6.046875 29.648438 6.371094 32.707031 6.996094 Z M 37.542969 20.5 L 37.542969 22.1875 C 41.5625 20.632812 44.101562 18.503906 44.566406 16.292969 C 44.476562 16.386719 44.382812 16.484375 44.289062 16.582031 C 42.761719 18.105469 40.433594 19.453125 37.542969 20.5 Z M 35.519531 4.597656 L 35.519531 6.335938 C 39.460938 7.464844 42.53125 9.082031 44.414062 11.035156 C 44.464844 11.089844 44.519531 11.140625 44.570312 11.199219 C 44.035156 8.609375 40.691406 6.164062 35.519531 4.597656 Z M 30.097656 21.839844 C 30.097656 21.832031 30.089844 21.832031 30.089844 21.828125 C 29.972656 21.679688 29.84375 21.550781 29.699219 21.425781 C 29.527344 21.273438 29.328125 21.148438 29.125 21.046875 C 28.761719 20.878906 28.367188 20.78125 27.953125 20.78125 C 27.652344 20.78125 27.367188 20.839844 27.089844 20.929688 C 26.601562 21.09375 26.171875 21.390625 25.84375 21.792969 C 25.730469 21.941406 25.625 22.09375 25.535156 22.261719 C 25.453125 22.414062 25.398438 22.574219 25.351562 22.730469 C 25.347656 22.753906 25.339844 22.773438 25.335938 22.789062 C 25.3125 22.867188 25.296875 22.945312 25.285156 23.027344 C 25.28125 23.066406 25.269531 23.101562 25.261719 23.140625 C 25.246094 23.257812 25.234375 23.375 25.234375 23.496094 C 25.234375 23.613281 25.246094 23.726562 25.257812 23.839844 C 25.261719 23.867188 25.261719 23.902344 25.269531 23.929688 C 25.285156 24.03125 25.308594 24.132812 25.335938 24.234375 C 25.339844 24.246094 25.339844 24.257812 25.347656 24.269531 C 25.375 24.359375 25.410156 24.445312 25.445312 24.53125 C 25.503906 24.683594 25.578125 24.828125 25.667969 24.964844 C 25.769531 25.125 25.890625 25.265625 26.019531 25.402344 C 26.332031 25.71875 26.710938 25.949219 27.128906 26.078125 C 27.28125 26.128906 27.4375 26.167969 27.601562 26.1875 C 27.714844 26.203125 27.828125 26.210938 27.949219 26.210938 C 28.257812 26.210938 28.554688 26.152344 28.835938 26.050781 C 29.191406 25.925781 29.519531 25.730469 29.796875 25.472656 C 29.960938 25.320312 30.101562 25.144531 30.222656 24.953125 C 30.324219 24.800781 30.414062 24.636719 30.476562 24.460938 C 30.476562 24.460938 30.476562 24.457031 30.476562 24.457031 C 30.53125 24.304688 30.578125 24.140625 30.609375 23.976562 C 30.640625 23.816406 30.65625 23.652344 30.65625 23.488281 C 30.65625 23.042969 30.550781 22.617188 30.34375 22.234375 C 30.285156 22.109375 30.199219 21.96875 30.097656 21.839844 Z M 45.171875 11.921875 L 45.550781 11.921875 Z M 32.195312 21.941406 C 32.382812 22.4375 32.476562 22.96875 32.476562 23.511719 C 32.476562 23.5625 32.472656 23.609375 32.472656 23.660156 C 32.464844 23.8125 32.453125 23.96875 32.433594 24.121094 C 33.585938 23.886719 34.6875 23.601562 35.734375 23.273438 L 35.734375 20.644531 C 34.550781 20.992188 33.308594 21.285156 32.011719 21.527344 C 32.082031 21.65625 32.144531 21.800781 32.195312 21.941406 Z M 32.195312 21.941406 " fill-opacity="1" fill-rule="nonzero"/></g></svg>